#!OML:ASF E:\Style4\Style4.ASF
:FULLY-SPECIFIED
:DEGREES
1752
root 0.387286 17.429 -1.47421 -3.92019 -2.50389 3.42574
lowerback 6.82477 2.76939 -0.180127
upperback 2.8898 3.65025 -1.61536
thorax -0.745531 1.83261 -1.82465
lowerneck -1.42893 -4.27662 -5.90404
upperneck 16.2788 -6.08938 4.62618
head 5.45431 -3.03118 2.09992
rclavicle 8.57066e-014 -2.05369e-014
rhumerus 53.0494 -19.3279 -52.5854
rradius 61.7218
rwrist -62.8946
rhand -11.9529 20.7433
rfingers 7.12502
rthumb 14.1024 -8.75811
lclavicle 8.57066e-014 -2.05369e-014
lhumerus 50.6721 11.9814 50.6993
lradius 74.708
lwrist 65.6839
lhand -2.68096 24.4734
lfingers 7.12502
lthumb 23.0201 53.1186
rfemur -14.1423 2.06684 13.5006
rtibia 40.3776
rfoot -21.0265 -11.4558
rtoes -13.8963
lfemur -11.3438 1.27155 -23.6287
ltibia 37.0815
lfoot -22.0699 7.44304
ltoes -13.2374
1753
root 0.391712 17.4292 -1.47837 -3.89793 -2.55141 3.49275
lowerback 6.83062 2.77515 -0.23069
upperback 2.89127 3.65422 -1.64644
thorax -0.748235 1.83439 -1.82896
lowerneck -1.37767 -4.29157 -5.93043
upperneck 16.1546 -6.10999 4.6498
head 5.4096 -3.04241 2.11205
rclavicle 1.83192e-014 -8.61918e-015
rhumerus 52.7563 -19.2773 -52.6025
rradius 62.0608
rwrist -62.9624
rhand -11.9504 20.6795
rfingers 7.12502
rthumb 14.1048 -8.82175
lclavicle 1.83192e-014 -8.61918e-015
lhumerus 50.442 11.9724 50.7106
lradius 74.8593
lwrist 65.665
lhand -2.60328 24.1827
lfingers 7.12502
lthumb 23.0947 52.8187
rfemur -14.2263 2.04521 13.405
rtibia 40.4195
rfoot -20.9747 -11.4618
rtoes -14.2653
lfemur -11.3811 1.26908 -23.7207
ltibia 37.0789
lfoot -22.0854 7.45331
ltoes -12.9274
1754
root 0.3967 17.4282 -1.48193 -3.85763 -2.58263 3.52708
lowerback 6.80683 2.76469 -0.273909
upperback 2.89171 3.63807 -1.62921
thorax -0.738943 1.8259 -1.78472
lowerneck -1.30605 -4.28938 -6.06905
upperneck 15.9978 -6.10642 4.71701
head 5.35489 -3.04606 2.15821
rclavicle 2.29635e-014 -1.98163e-015
rhumerus 52.507 -19.1673 -52.5283
rradius 62.4165
rwrist -63.0108
rhand -12.0339 20.6734
rfingers 7.12502
rthumb 14.0243 -8.83349
lclavicle 2.29635e-014 -1.98163e-015
lhumerus 50.1959 12.009 50.7787
lradius 74.9849
lwrist 65.6093
lhand -2.55194 23.991
lfingers 7.12502
lthumb 23.1439 52.6208
rfemur -14.3222 2.02214 13.3449
rtibia 40.4624
rfoot -20.9772 -11.4317
rtoes -14.5077
lfemur -11.4309 1.2966 -23.7767
ltibia 37.0758
lfoot -22.1104 7.44962
ltoes -12.7215
1755
root 0.402882 17.4269 -1.48678 -3.79684 -2.61486 3.52973
lowerback 6.79496 2.75185 -0.270781
upperback 2.89305 3.62151 -1.61328
thorax -0.732327 1.81755 -1.76824
lowerneck -1.29891 -4.27355 -6.15515
upperneck 15.8717 -6.08552 4.78449
head 5.31793 -3.03715 2.19526
rclavicle -1.75668e-014 8.18744e-015
rhumerus 52.3076 -19.1008 -52.4703
rradius 62.736
rwrist -63.0401
rhand -12.0224 20.7109
rfingers 7.12502
rthumb 14.0354 -8.79517
lclavicle -1.75668e-014 8.18744e-015
lhumerus 50.0094 12.077 50.8297
lradius 75.1575
lwrist 65.6133
lhand -2.46965 23.9485
lfingers 7.12502
lthumb 23.2229 52.5683
rfemur -14.4435 1.98696 13.3112
rtibia 40.5158
rfoot -21.0233 -11.2949
rtoes -14.4882
lfemur -11.521 1.30817 -23.8069
ltibia 37.0785
lfoot -22.0264 7.45131
ltoes -12.5334
1756
root 0.408033 17.4269 -1.49135 -3.77639 -2.65773 3.55955
lowerback 6.829 2.74873 -0.275148
upperback 2.8976 3.61647 -1.62322
thorax -0.746227 1.81497 -1.77738
lowerneck -1.30369 -4.25089 -6.17712
upperneck 15.7972 -6.05297 4.80119
head 5.29486 -3.02161 2.20616
rclavicle -2.74742e-014 3.10601e-015
rhumerus 52.0726 -19.0483 -52.3816
rradius 63.0336
rwrist -63.0338
rhand -11.9748 20.8015
rfingers 7.12502
rthumb 14.0812 -8.70141
lclavicle -2.74742e-014 3.10601e-015
lhumerus 49.8502 12.1149 50.8653
lradius 75.3189
lwrist 65.6732
lhand -2.43186 23.8717
lfingers 7.12502
lthumb 23.2591 52.487
rfemur -14.5221 1.99255 13.2485
rtibia 40.5614
rfoot -21.0322 -11.2282
rtoes -14.2493
lfemur -11.5791 1.34219 -23.8563
ltibia 37.1068
lfoot -21.9953 7.40375
ltoes -12.3314
1757
root 0.412424 17.4254 -1.49524 -3.79912 -2.72648 3.59216
lowerback 6.89947 2.7681 -0.292146
upperback 2.90658 3.64001 -1.63523
thorax -0.775542 1.82655 -1.78553
lowerneck -1.30055 -4.24561 -6.14435
upperneck 15.763 -6.03943 4.7509
head 5.28057 -3.01621 2.18606
rclavicle -2.0349e-014 5.40446e-015
rhumerus 51.8591 -19.0208 -52.3145
rradius 63.2759
rwrist -62.9717
rhand -11.8665 20.9448
rfingers 7.12502
rthumb 14.1857 -8.55079
lclavicle -2.0349e-014 5.40446e-015
lhumerus 49.6668 12.0859 50.8525
lradius 75.4987
lwrist 65.6386
lhand -2.47454 23.7168
lfingers 7.12502
lthumb 23.2182 52.3372
rfemur -14.5574 2.00746 13.1932
rtibia 40.6102
rfoot -20.983 -11.2254
rtoes -14.2604
lfemur -11.5945 1.35968 -23.9064
ltibia 37.1579
lfoot -22.0638 7.43433
ltoes -12.2388
1758
root 0.416545 17.4225 -1.49949 -3.82886 -2.80923 3.56237
lowerback 6.98447 2.78524 -0.256674
upperback 2.9205 3.66409 -1.62347
thorax -0.80609 1.83863 -1.79923
lowerneck -1.26196 -4.25112 -6.17387
upperneck 15.6653 -6.04548 4.76258
head 5.24538 -3.02087 2.19542
rclavicle 1.69371e-014 -5.39203e-015
rhumerus 51.7043 -18.9959 -52.244
rradius 63.474
rwrist -62.8548
rhand -11.8054 21.1428
rfingers 7.12502
rthumb 14.2446 -8.34869
lclavicle 1.69371e-014 -5.39203e-015
lhumerus 49.4953 12.0968 50.7874
lradius 75.6946
lwrist 65.6196
lhand -2.51368 23.7313
lfingers 7.12502
lthumb 23.1806 52.3565
rfemur -14.5843 2.06356 13.2166
rtibia 40.6528
rfoot -20.976 -11.1904
rtoes -14.3024
lfemur -11.6082 1.40011 -23.8856
ltibia 37.2248
lfoot -22.0864 7.43393
ltoes -11.862
1759
root 0.420428 17.4196 -1.50474 -3.83639 -2.89798 3.55778
lowerback 7.03543 2.79184 -0.26197
upperback 2.94073 3.67228 -1.59904
thorax -0.815147 1.84249 -1.77398
lowerneck -1.12815 -4.24371 -6.19042
upperneck 15.445 -6.03012 4.73542
head 5.15348 -3.01815 2.19444
rclavicle -6.08871e-014 1.59525e-014
rhumerus 51.6089 -18.9302 -52.1307
rradius 63.6774
rwrist -62.8064
rhand -11.7759 21.1583
rfingers 7.12502
rthumb 14.2729 -8.33117
lclavicle -6.08871e-014 1.59525e-014
lhumerus 49.3072 12.1601 50.6975
lradius 75.885
lwrist 65.6654
lhand -2.57957 23.8054
lfingers 7.12502
lthumb 23.1174 52.4384
rfemur -14.6536 2.08083 13.2169
rtibia 40.6973
rfoot -20.9572 -11.1798
rtoes -14.5344
lfemur -11.6572 1.47226 -23.8901
ltibia 37.3025
lfoot -22.052 7.49978
ltoes -11.9922
1760
root 0.424289 17.4166 -1.51039 -3.81959 -2.93372 3.57756
lowerback 7.05842 2.77579 -0.296238
upperback 2.96127 3.64864 -1.59198
thorax -0.809981 1.83042 -1.7465
lowerneck -1.00148 -4.22454 -6.14692
upperneck 15.2282 -6.0002 4.69294
head 5.06082 -3.00569 2.17959
rclavicle 1.23433e-014 -2.31336e-014
rhumerus 51.5903 -18.867 -52.057
rradius 63.8115
rwrist -62.8344
rhand -11.7533 21.0324
rfingers 7.12502
rthumb 14.2948 -8.45556
lclavicle 1.23433e-014 -2.31336e-014
lhumerus 49.1968 12.2269 50.6116
lradius 75.9966
lwrist 65.6602
lhand -2.7201 23.7401
lfingers 7.12502
lthumb 22.9826 52.39
rfemur -14.7277 2.08343 13.1818
rtibia 40.7285
rfoot -20.9619 -11.1461
rtoes -14.4098
lfemur -11.7444 1.48217 -23.9234
ltibia 37.3893
lfoot -22.1311 7.57788
ltoes -12.3738
1761
root 0.42791 17.4149 -1.51601 -3.8204 -2.96727 3.54783
lowerback 7.11395 2.7724 -0.260137
upperback 2.98229 3.64596 -1.58912
thorax -0.817017 1.82934 -1.76585
lowerneck -0.988032 -4.21914 -6.08375
upperneck 15.1615 -5.98995 4.65658
head 5.03438 -2.99955 2.15913
rclavicle 1.21228e-014 -6.70898e-016
rhumerus 51.5651 -18.8706 -52.0356
rradius 63.9275
rwrist -62.8825
rhand -11.7127 20.7972
rfingers 7.12502
rthumb 14.3339 -8.68798
lclavicle 1.21228e-014 -6.70898e-016
lhumerus 49.1582 12.2435 50.5191
lradius 76.0751
lwrist 65.6395
lhand -2.77279 23.5904
lfingers 7.12502
lthumb 22.932 52.2466
rfemur -14.7751 2.08207 13.2011
rtibia 40.7623
rfoot -20.9496 -11.1152
rtoes -14.4462
lfemur -11.7964 1.48698 -23.9038
ltibia 37.4554
lfoot -22.2664 7.7143
ltoes -12.8779
1762
root 0.429853 17.4147 -1.52031 -3.81823 -3.00682 3.48947
lowerback 7.16025 2.76411 -0.227633
upperback 2.98557 3.63673 -1.56511
thorax -0.839066 1.82467 -1.76108
lowerneck -0.984987 -4.21892 -6.05272
upperneck 15.1566 -5.98418 4.6041
head 5.0297 -2.99808 2.13814
rclavicle 3.23739e-014 1.2424e-016
rhumerus 51.5418 -18.8206 -52.0423
rradius 64.0579
rwrist -62.9001
rhand -11.7546 20.6653
rfingers 7.12502
rthumb 14.2935 -8.82274
lclavicle 3.23739e-014 1.2424e-016
lhumerus 49.0756 12.275 50.4505
lradius 76.1628
lwrist 65.67
lhand -2.80737 23.5315
lfingers 7.12502
lthumb 22.8988 52.1918
rfemur -14.8105 2.14548 13.2623
rtibia 40.7946
rfoot -20.9662 -11.1027
rtoes -14.2927
lfemur -11.8351 1.50403 -23.8454
ltibia 37.4979
lfoot -22.3247 7.82852
ltoes -13.467
1763
root 0.434081 17.4137 -1.52382 -3.78623 -3.05605 3.55067
lowerback 7.16631 2.76959 -0.274036
upperback 2.97959 3.64036 -1.58959
thorax -0.849732 1.8262 -1.76119
lowerneck -0.927319 -4.21081 -6.01406
upperneck 15.0664 -5.97193 4.57842
head 4.98955 -2.99237 2.12626
rclavicle -3.06563e-015 1.86361e-015
rhumerus 51.5172 -18.7915 -52.0388
rradius 64.1524
rwrist -62.9201
rhand -11.7633 20.6254
rfingers 7.12502
rthumb 14.2851 -8.86319
lclavicle -3.06563e-015 1.86361e-015
lhumerus 49.0301 12.3075 50.4275
lradius 76.2583
lwrist 65.7143
lhand -2.807 23.6809
lfingers 7.12502
lthumb 22.8992 52.3412
rfemur -14.9009 2.14759 13.1779
rtibia 40.8331
rfoot -20.9505 -11.0925
rtoes -14.42
lfemur -11.8935 1.51253 -23.9316
ltibia 37.5099
lfoot -22.2647 7.83459
ltoes -13.3835
1764
root 0.438851 17.4102 -1.52726 -3.78163 -3.0929 3.61144
lowerback 7.19565 2.77552 -0.321168
upperback 2.96916 3.64436 -1.59623
thorax -0.879089 1.8277 -1.74405
lowerneck -0.832667 -4.18926 -6.05558
upperneck 14.9747 -5.94938 4.62966
head 4.94666 -2.98218 2.15277
rclavicle -2.54196e-014 2.39784e-014
rhumerus 51.4898 -18.7548 -51.9556
rradius 64.2011
rwrist -62.9778
rhand -11.663 20.6763
rfingers 7.12502
rthumb 14.3818 -8.80544
lclavicle -2.54196e-014 2.39784e-014
lhumerus 48.9312 12.3044 50.3569
lradius 76.3274
lwrist 65.7359
lhand -2.84062 23.6484
lfingers 7.12502
lthumb 22.8669 52.3127
rfemur -14.9692 2.1452 13.0886
rtibia 40.8872
rfoot -20.9618 -11.0413
rtoes -14.5193
lfemur -11.9004 1.48403 -24.0111
ltibia 37.493
lfoot -22.2124 7.64319
ltoes -12.1186
